<svg xmlns="http://www.w3.org/2000/svg" width="1500" height="900" viewBox="0 0 1500 900">
<rect width="100%" height="100%" fill="#f8fafc"/>
<rect x="70" y="88" width="1360" height="748" rx="30" fill="#ffffff" stroke="#dbe4ee" stroke-width="1.5"/>
<text x="96" y="128" font-size="34" font-weight="700" fill="#0f172a">Fibonacci Sequence</text>
<rect x="96" y="146" width="106" height="28" rx="14" fill="#c2410c"/><text x="108" y="164" font-size="13" font-weight="700" fill="#ffffff">Recursive</text>
<rect x="224" y="146" width="106" height="28" rx="14" fill="#0f766e"/><text x="236" y="164" font-size="13" font-weight="700" fill="#ffffff">Iterative</text>
<rect x="352" y="146" width="204" height="28" rx="14" fill="#fff7ed" stroke="#fdba74" stroke-width="1"/><text x="364" y="164" font-size="13" font-weight="700" fill="#9a3412">Recursive overflow at 50k</text>
<text x="1404" y="165" text-anchor="end" font-size="18" fill="#475569">At 30k: recursion is 1.20x slower</text>
<line x1="178" y1="748.2355464663515" x2="1396" y2="748.2355464663515" stroke="#e2e8f0" stroke-width="1.2"/>
<text x="162" y="753.2355464663515" text-anchor="end" font-size="16" fill="#64748b">100.0K</text>
<line x1="178" y1="572.2271133192914" x2="1396" y2="572.2271133192914" stroke="#e2e8f0" stroke-width="1.2"/>
<text x="162" y="577.2271133192914" text-anchor="end" font-size="16" fill="#64748b">1.0M</text>
<line x1="178" y1="396.21868017223136" x2="1396" y2="396.21868017223136" stroke="#e2e8f0" stroke-width="1.2"/>
<text x="162" y="401.21868017223136" text-anchor="end" font-size="16" fill="#64748b">10.0M</text>
<line x1="178" y1="220.21024702517127" x2="1396" y2="220.21024702517127" stroke="#e2e8f0" stroke-width="1.2"/>
<text x="162" y="225.21024702517127" text-anchor="end" font-size="16" fill="#64748b">100.0M</text>
<line x1="178" y1="44.20181387811124" x2="1396" y2="44.20181387811124" stroke="#e2e8f0" stroke-width="1.2"/>
<text x="162" y="49.20181387811124" text-anchor="end" font-size="16" fill="#64748b">1.0B</text>
<line x1="178.0" y1="200" x2="178.0" y2="746" stroke="#f1f5f9" stroke-width="1"/>
<text x="178.0" y="780" text-anchor="middle" font-size="16" fill="#64748b">5k</text>
<line x1="421.6" y1="200" x2="421.6" y2="746" stroke="#f1f5f9" stroke-width="1"/>
<text x="421.6" y="780" text-anchor="middle" font-size="16" fill="#64748b">10k</text>
<line x1="665.2" y1="200" x2="665.2" y2="746" stroke="#f1f5f9" stroke-width="1"/>
<text x="665.2" y="780" text-anchor="middle" font-size="16" fill="#64748b">30k</text>
<line x1="908.8" y1="200" x2="908.8" y2="746" stroke="#f1f5f9" stroke-width="1"/>
<text x="908.8" y="780" text-anchor="middle" font-size="16" fill="#64748b">50k</text>
<line x1="1152.4" y1="200" x2="1152.4" y2="746" stroke="#f1f5f9" stroke-width="1"/>
<text x="1152.4" y="780" text-anchor="middle" font-size="16" fill="#64748b">70k</text>
<line x1="1396.0" y1="200" x2="1396.0" y2="746" stroke="#f1f5f9" stroke-width="1"/>
<text x="1396.0" y="780" text-anchor="middle" font-size="16" fill="#64748b">100k</text>
<line x1="178" y1="746" x2="1396" y2="746" stroke="#334155" stroke-width="2"/>
<line x1="178" y1="200" x2="178" y2="746" stroke="#334155" stroke-width="2"/>
<line x1="908.8" y1="200" x2="908.8" y2="746" stroke="#fb923c" stroke-width="2.5" stroke-dasharray="8 8" opacity="0.95"/>
<text x="920.8" y="224" font-size="16" font-weight="700" fill="#9a3412">Overflow starts at 50k</text>
<text x="787.0" y="814" text-anchor="middle" font-size="18" fill="#334155">Input Size</text>
<text x="100" y="473.0" text-anchor="middle" font-size="18" fill="#334155" transform="rotate(-90 100 473.0)">Average Runtime (ns, log scale)</text>
<line x1="178.0" y1="602.8836940547819" x2="421.6" y2="583.1143247990917" stroke="#c2410c" stroke-width="5" stroke-linecap="round"/>
<line x1="421.6" y1="583.1143247990917" x2="665.2" y2="423.9197379521959" stroke="#c2410c" stroke-width="5" stroke-linecap="round"/>
<circle cx="178.0" cy="602.8836940547819" r="7" fill="#c2410c" stroke="#ffffff" stroke-width="2.5"/>
<circle cx="421.6" cy="583.1143247990917" r="7" fill="#c2410c" stroke="#ffffff" stroke-width="2.5"/>
<circle cx="665.2" cy="423.9197379521959" r="7" fill="#c2410c" stroke="#ffffff" stroke-width="2.5"/>
<line x1="897.8" y1="225" x2="919.8" y2="247" stroke="#c2410c" stroke-width="3" stroke-linecap="round"/><line x1="897.8" y1="247" x2="919.8" y2="225" stroke="#c2410c" stroke-width="3" stroke-linecap="round"/>
<line x1="1141.4" y1="225" x2="1163.4" y2="247" stroke="#c2410c" stroke-width="3" stroke-linecap="round"/><line x1="1141.4" y1="247" x2="1163.4" y2="225" stroke="#c2410c" stroke-width="3" stroke-linecap="round"/>
<line x1="1385.0" y1="225" x2="1407.0" y2="247" stroke="#c2410c" stroke-width="3" stroke-linecap="round"/><line x1="1385.0" y1="247" x2="1407.0" y2="225" stroke="#c2410c" stroke-width="3" stroke-linecap="round"/>
<line x1="178.0" y1="693.1612903225807" x2="421.6" y2="612.6752643237128" stroke="#0f766e" stroke-width="5" stroke-linecap="round"/>
<line x1="421.6" y1="612.6752643237128" x2="665.2" y2="437.8377533593844" stroke="#0f766e" stroke-width="5" stroke-linecap="round"/>
<line x1="665.2" y1="437.8377533593844" x2="908.8" y2="365.05620055896344" stroke="#0f766e" stroke-width="5" stroke-linecap="round"/>
<line x1="908.8" y1="365.05620055896344" x2="1152.4" y2="310.9952670004836" stroke="#0f766e" stroke-width="5" stroke-linecap="round"/>
<line x1="1152.4" y1="310.9952670004836" x2="1396.0" y2="252.83870967741944" stroke="#0f766e" stroke-width="5" stroke-linecap="round"/>
<circle cx="178.0" cy="693.1612903225807" r="7" fill="#0f766e" stroke="#ffffff" stroke-width="2.5"/>
<circle cx="421.6" cy="612.6752643237128" r="7" fill="#0f766e" stroke="#ffffff" stroke-width="2.5"/>
<circle cx="665.2" cy="437.8377533593844" r="7" fill="#0f766e" stroke="#ffffff" stroke-width="2.5"/>
<circle cx="908.8" cy="365.05620055896344" r="7" fill="#0f766e" stroke="#ffffff" stroke-width="2.5"/>
<circle cx="1152.4" cy="310.9952670004836" r="7" fill="#0f766e" stroke="#ffffff" stroke-width="2.5"/>
<circle cx="1396.0" cy="252.83870967741944" r="7" fill="#0f766e" stroke="#ffffff" stroke-width="2.5"/>
</svg>