<svg xmlns="http://www.w3.org/2000/svg" width="1500" height="900" viewBox="0 0 1500 900">
<rect width="100%" height="100%" fill="#f8fafc"/>
<rect x="70" y="88" width="1360" height="748" rx="30" fill="#ffffff" stroke="#dbe4ee" stroke-width="1.5"/>
<text x="96" y="128" font-size="34" font-weight="700" fill="#0f172a">Binary Search</text>
<rect x="96" y="146" width="106" height="28" rx="14" fill="#c2410c"/><text x="108" y="164" font-size="13" font-weight="700" fill="#ffffff">Recursive</text>
<rect x="224" y="146" width="106" height="28" rx="14" fill="#0f766e"/><text x="236" y="164" font-size="13" font-weight="700" fill="#ffffff">Iterative</text>
<rect x="352" y="146" width="218" height="28" rx="14" fill="#ecfdf5" stroke="#86efac" stroke-width="1"/><text x="364" y="164" font-size="13" font-weight="700" fill="#065f46">Recursive safe through 100k</text>
<text x="1404" y="165" text-anchor="end" font-size="18" fill="#475569">At 100k: recursion is 1.97x slower</text>
<line x1="178" y1="992.3296130553624" x2="1396" y2="992.3296130553624" stroke="#e2e8f0" stroke-width="1.2"/>
<text x="162" y="997.3296130553624" text-anchor="end" font-size="16" fill="#64748b">100</text>
<line x1="178" y1="265.5220321775256" x2="1396" y2="265.5220321775256" stroke="#e2e8f0" stroke-width="1.2"/>
<text x="162" y="270.5220321775256" text-anchor="end" font-size="16" fill="#64748b">1.0K</text>
<line x1="178" y1="-461.285548700311" x2="1396" y2="-461.285548700311" stroke="#e2e8f0" stroke-width="1.2"/>
<text x="162" y="-456.285548700311" text-anchor="end" font-size="16" fill="#64748b">10.0K</text>
<line x1="178.0" y1="200" x2="178.0" y2="746" stroke="#f1f5f9" stroke-width="1"/>
<text x="178.0" y="780" text-anchor="middle" font-size="16" fill="#64748b">5k</text>
<line x1="421.6" y1="200" x2="421.6" y2="746" stroke="#f1f5f9" stroke-width="1"/>
<text x="421.6" y="780" text-anchor="middle" font-size="16" fill="#64748b">10k</text>
<line x1="665.2" y1="200" x2="665.2" y2="746" stroke="#f1f5f9" stroke-width="1"/>
<text x="665.2" y="780" text-anchor="middle" font-size="16" fill="#64748b">30k</text>
<line x1="908.8" y1="200" x2="908.8" y2="746" stroke="#f1f5f9" stroke-width="1"/>
<text x="908.8" y="780" text-anchor="middle" font-size="16" fill="#64748b">50k</text>
<line x1="1152.4" y1="200" x2="1152.4" y2="746" stroke="#f1f5f9" stroke-width="1"/>
<text x="1152.4" y="780" text-anchor="middle" font-size="16" fill="#64748b">70k</text>
<line x1="1396.0" y1="200" x2="1396.0" y2="746" stroke="#f1f5f9" stroke-width="1"/>
<text x="1396.0" y="780" text-anchor="middle" font-size="16" fill="#64748b">100k</text>
<line x1="178" y1="746" x2="1396" y2="746" stroke="#334155" stroke-width="2"/>
<line x1="178" y1="200" x2="178" y2="746" stroke="#334155" stroke-width="2"/>
<text x="787.0" y="814" text-anchor="middle" font-size="18" fill="#334155">Input Size</text>
<text x="100" y="473.0" text-anchor="middle" font-size="18" fill="#334155" transform="rotate(-90 100 473.0)">Average Runtime (ns, log scale)</text>
<line x1="178.0" y1="449.67021712487934" x2="421.6" y2="532.6548585140356" stroke="#c2410c" stroke-width="5" stroke-linecap="round"/>
<line x1="421.6" y1="532.6548585140356" x2="665.2" y2="464.1387683046573" stroke="#c2410c" stroke-width="5" stroke-linecap="round"/>
<line x1="665.2" y1="464.1387683046573" x2="908.8" y2="252.8387096774194" stroke="#c2410c" stroke-width="5" stroke-linecap="round"/>
<line x1="908.8" y1="252.8387096774194" x2="1152.4" y2="449.67021712487934" stroke="#c2410c" stroke-width="5" stroke-linecap="round"/>
<line x1="1152.4" y1="449.67021712487934" x2="1396.0" y2="445.17692385832834" stroke="#c2410c" stroke-width="5" stroke-linecap="round"/>
<circle cx="178.0" cy="449.67021712487934" r="7" fill="#c2410c" stroke="#ffffff" stroke-width="2.5"/>
<circle cx="421.6" cy="532.6548585140356" r="7" fill="#c2410c" stroke="#ffffff" stroke-width="2.5"/>
<circle cx="665.2" cy="464.1387683046573" r="7" fill="#c2410c" stroke="#ffffff" stroke-width="2.5"/>
<circle cx="908.8" cy="252.8387096774194" r="7" fill="#c2410c" stroke="#ffffff" stroke-width="2.5"/>
<circle cx="1152.4" cy="449.67021712487934" r="7" fill="#c2410c" stroke="#ffffff" stroke-width="2.5"/>
<circle cx="1396.0" cy="445.17692385832834" r="7" fill="#c2410c" stroke="#ffffff" stroke-width="2.5"/>
<line x1="178.0" y1="608.8442012042519" x2="421.6" y2="693.1612903225806" stroke="#0f766e" stroke-width="5" stroke-linecap="round"/>
<line x1="421.6" y1="693.1612903225806" x2="665.2" y2="663.9678067785322" stroke="#0f766e" stroke-width="5" stroke-linecap="round"/>
<line x1="665.2" y1="663.9678067785322" x2="908.8" y2="674.1691854639647" stroke="#0f766e" stroke-width="5" stroke-linecap="round"/>
<line x1="908.8" y1="674.1691854639647" x2="1152.4" y2="678.8111591486111" stroke="#0f766e" stroke-width="5" stroke-linecap="round"/>
<line x1="1152.4" y1="678.8111591486111" x2="1396.0" y2="659.5375793623739" stroke="#0f766e" stroke-width="5" stroke-linecap="round"/>
<circle cx="178.0" cy="608.8442012042519" r="7" fill="#0f766e" stroke="#ffffff" stroke-width="2.5"/>
<circle cx="421.6" cy="693.1612903225806" r="7" fill="#0f766e" stroke="#ffffff" stroke-width="2.5"/>
<circle cx="665.2" cy="663.9678067785322" r="7" fill="#0f766e" stroke="#ffffff" stroke-width="2.5"/>
<circle cx="908.8" cy="674.1691854639647" r="7" fill="#0f766e" stroke="#ffffff" stroke-width="2.5"/>
<circle cx="1152.4" cy="678.8111591486111" r="7" fill="#0f766e" stroke="#ffffff" stroke-width="2.5"/>
<circle cx="1396.0" cy="659.5375793623739" r="7" fill="#0f766e" stroke="#ffffff" stroke-width="2.5"/>
</svg>