<svg xmlns="http://www.w3.org/2000/svg" width="1500" height="900" viewBox="0 0 1500 900">
<rect width="100%" height="100%" fill="#f8fafc"/>
<rect x="70" y="88" width="1360" height="748" rx="30" fill="#ffffff" stroke="#dbe4ee" stroke-width="1.5"/>
<text x="96" y="128" font-size="34" font-weight="700" fill="#0f172a">Fast Exponentiation</text>
<rect x="96" y="146" width="106" height="28" rx="14" fill="#c2410c"/><text x="108" y="164" font-size="13" font-weight="700" fill="#ffffff">Recursive</text>
<rect x="224" y="146" width="106" height="28" rx="14" fill="#0f766e"/><text x="236" y="164" font-size="13" font-weight="700" fill="#ffffff">Iterative</text>
<rect x="352" y="146" width="218" height="28" rx="14" fill="#ecfdf5" stroke="#86efac" stroke-width="1"/><text x="364" y="164" font-size="13" font-weight="700" fill="#065f46">Recursive safe through 100k</text>
<text x="1404" y="165" text-anchor="end" font-size="18" fill="#475569">At 100k: recursion is 1.37x faster</text>
<line x1="178" y1="752.6881492036415" x2="1396" y2="752.6881492036415" stroke="#e2e8f0" stroke-width="1.2"/>
<text x="162" y="757.6881492036415" text-anchor="end" font-size="16" fill="#64748b">10.0K</text>
<line x1="178" y1="480.4944647256748" x2="1396" y2="480.4944647256748" stroke="#e2e8f0" stroke-width="1.2"/>
<text x="162" y="485.4944647256748" text-anchor="end" font-size="16" fill="#64748b">100.0K</text>
<line x1="178" y1="208.30078024770808" x2="1396" y2="208.30078024770808" stroke="#e2e8f0" stroke-width="1.2"/>
<text x="162" y="213.30078024770808" text-anchor="end" font-size="16" fill="#64748b">1.0M</text>
<line x1="178" y1="-63.89290423025852" x2="1396" y2="-63.89290423025852" stroke="#e2e8f0" stroke-width="1.2"/>
<text x="162" y="-58.89290423025852" text-anchor="end" font-size="16" fill="#64748b">10.0M</text>
<line x1="178.0" y1="200" x2="178.0" y2="746" stroke="#f1f5f9" stroke-width="1"/>
<text x="178.0" y="780" text-anchor="middle" font-size="16" fill="#64748b">5k</text>
<line x1="421.6" y1="200" x2="421.6" y2="746" stroke="#f1f5f9" stroke-width="1"/>
<text x="421.6" y="780" text-anchor="middle" font-size="16" fill="#64748b">10k</text>
<line x1="665.2" y1="200" x2="665.2" y2="746" stroke="#f1f5f9" stroke-width="1"/>
<text x="665.2" y="780" text-anchor="middle" font-size="16" fill="#64748b">30k</text>
<line x1="908.8" y1="200" x2="908.8" y2="746" stroke="#f1f5f9" stroke-width="1"/>
<text x="908.8" y="780" text-anchor="middle" font-size="16" fill="#64748b">50k</text>
<line x1="1152.4" y1="200" x2="1152.4" y2="746" stroke="#f1f5f9" stroke-width="1"/>
<text x="1152.4" y="780" text-anchor="middle" font-size="16" fill="#64748b">70k</text>
<line x1="1396.0" y1="200" x2="1396.0" y2="746" stroke="#f1f5f9" stroke-width="1"/>
<text x="1396.0" y="780" text-anchor="middle" font-size="16" fill="#64748b">100k</text>
<line x1="178" y1="746" x2="1396" y2="746" stroke="#334155" stroke-width="2"/>
<line x1="178" y1="200" x2="178" y2="746" stroke="#334155" stroke-width="2"/>
<text x="787.0" y="814" text-anchor="middle" font-size="18" fill="#334155">Input Size</text>
<text x="100" y="473.0" text-anchor="middle" font-size="18" fill="#334155" transform="rotate(-90 100 473.0)">Average Runtime (ns, log scale)</text>
<line x1="178.0" y1="569.6342291624892" x2="421.6" y2="482.6476870351244" stroke="#c2410c" stroke-width="5" stroke-linecap="round"/>
<line x1="421.6" y1="482.6476870351244" x2="665.2" y2="440.86381231754484" stroke="#c2410c" stroke-width="5" stroke-linecap="round"/>
<line x1="665.2" y1="440.86381231754484" x2="908.8" y2="395.1433037645355" stroke="#c2410c" stroke-width="5" stroke-linecap="round"/>
<line x1="908.8" y1="395.1433037645355" x2="1152.4" y2="383.22717723824167" stroke="#c2410c" stroke-width="5" stroke-linecap="round"/>
<line x1="1152.4" y1="383.22717723824167" x2="1396.0" y2="365.81716520772625" stroke="#c2410c" stroke-width="5" stroke-linecap="round"/>
<circle cx="178.0" cy="569.6342291624892" r="7" fill="#c2410c" stroke="#ffffff" stroke-width="2.5"/>
<circle cx="421.6" cy="482.6476870351244" r="7" fill="#c2410c" stroke="#ffffff" stroke-width="2.5"/>
<circle cx="665.2" cy="440.86381231754484" r="7" fill="#c2410c" stroke="#ffffff" stroke-width="2.5"/>
<circle cx="908.8" cy="395.1433037645355" r="7" fill="#c2410c" stroke="#ffffff" stroke-width="2.5"/>
<circle cx="1152.4" cy="383.22717723824167" r="7" fill="#c2410c" stroke="#ffffff" stroke-width="2.5"/>
<circle cx="1396.0" cy="365.81716520772625" r="7" fill="#c2410c" stroke="#ffffff" stroke-width="2.5"/>
<line x1="178.0" y1="693.1612903225806" x2="421.6" y2="554.8886824144809" stroke="#0f766e" stroke-width="5" stroke-linecap="round"/>
<line x1="421.6" y1="554.8886824144809" x2="665.2" y2="437.07192533063363" stroke="#0f766e" stroke-width="5" stroke-linecap="round"/>
<line x1="665.2" y1="437.07192533063363" x2="908.8" y2="343.825482173038" stroke="#0f766e" stroke-width="5" stroke-linecap="round"/>
<line x1="908.8" y1="343.825482173038" x2="1152.4" y2="252.83870967741944" stroke="#0f766e" stroke-width="5" stroke-linecap="round"/>
<line x1="1152.4" y1="252.83870967741944" x2="1396.0" y2="328.8087244468837" stroke="#0f766e" stroke-width="5" stroke-linecap="round"/>
<circle cx="178.0" cy="693.1612903225806" r="7" fill="#0f766e" stroke="#ffffff" stroke-width="2.5"/>
<circle cx="421.6" cy="554.8886824144809" r="7" fill="#0f766e" stroke="#ffffff" stroke-width="2.5"/>
<circle cx="665.2" cy="437.07192533063363" r="7" fill="#0f766e" stroke="#ffffff" stroke-width="2.5"/>
<circle cx="908.8" cy="343.825482173038" r="7" fill="#0f766e" stroke="#ffffff" stroke-width="2.5"/>
<circle cx="1152.4" cy="252.83870967741944" r="7" fill="#0f766e" stroke="#ffffff" stroke-width="2.5"/>
<circle cx="1396.0" cy="328.8087244468837" r="7" fill="#0f766e" stroke="#ffffff" stroke-width="2.5"/>
</svg>