<svg xmlns="http://www.w3.org/2000/svg" width="1500" height="900" viewBox="0 0 1500 900">
<rect width="100%" height="100%" fill="#f8fafc"/>
<rect x="70" y="88" width="1360" height="748" rx="30" fill="#ffffff" stroke="#dbe4ee" stroke-width="1.5"/>
<text x="96" y="128" font-size="34" font-weight="700" fill="#0f172a">Binary Search</text>
<rect x="96" y="146" width="106" height="28" rx="14" fill="#c2410c"/><text x="108" y="164" font-size="13" font-weight="700" fill="#ffffff">Recursive</text>
<rect x="224" y="146" width="106" height="28" rx="14" fill="#0f766e"/><text x="236" y="164" font-size="13" font-weight="700" fill="#ffffff">Iterative</text>
<rect x="352" y="146" width="218" height="28" rx="14" fill="#eff6ff" stroke="#93c5fd" stroke-width="1"/><text x="364" y="164" font-size="13" font-weight="700" fill="#1d4ed8">Source: teammate Excel data</text>
<text x="1404" y="165" text-anchor="end" font-size="18" fill="#475569">At 100k: recursion is 4.06x slower</text>
<line x1="190" y1="734.0" x2="1394" y2="734.0" stroke="#e2e8f0" stroke-width="1.2"/>
<text x="174" y="739.0" text-anchor="end" font-size="16" fill="#64748b">0</text>
<line x1="190" y1="627.220397249809" x2="1394" y2="627.220397249809" stroke="#e2e8f0" stroke-width="1.2"/>
<text x="174" y="632.220397249809" text-anchor="end" font-size="16" fill="#64748b">2,094</text>
<line x1="190" y1="520.3898013750954" x2="1394" y2="520.3898013750954" stroke="#e2e8f0" stroke-width="1.2"/>
<text x="174" y="525.3898013750954" text-anchor="end" font-size="16" fill="#64748b">4,189</text>
<line x1="190" y1="413.6101986249045" x2="1394" y2="413.6101986249045" stroke="#e2e8f0" stroke-width="1.2"/>
<text x="174" y="418.6101986249045" text-anchor="end" font-size="16" fill="#64748b">6,283</text>
<line x1="190" y1="306.779602750191" x2="1394" y2="306.779602750191" stroke="#e2e8f0" stroke-width="1.2"/>
<text x="174" y="311.779602750191" text-anchor="end" font-size="16" fill="#64748b">8,378</text>
<line x1="190" y1="200.0" x2="1394" y2="200.0" stroke="#e2e8f0" stroke-width="1.2"/>
<text x="174" y="205.0" text-anchor="end" font-size="16" fill="#64748b">10,472</text>
<line x1="190.0" y1="200" x2="190.0" y2="734" stroke="#f1f5f9" stroke-width="1"/>
<text x="190.0" y="768" text-anchor="middle" font-size="16" fill="#64748b">5k</text>
<line x1="430.8" y1="200" x2="430.8" y2="734" stroke="#f1f5f9" stroke-width="1"/>
<text x="430.8" y="768" text-anchor="middle" font-size="16" fill="#64748b">10k</text>
<line x1="671.6" y1="200" x2="671.6" y2="734" stroke="#f1f5f9" stroke-width="1"/>
<text x="671.6" y="768" text-anchor="middle" font-size="16" fill="#64748b">30k</text>
<line x1="912.4" y1="200" x2="912.4" y2="734" stroke="#f1f5f9" stroke-width="1"/>
<text x="912.4" y="768" text-anchor="middle" font-size="16" fill="#64748b">50k</text>
<line x1="1153.2" y1="200" x2="1153.2" y2="734" stroke="#f1f5f9" stroke-width="1"/>
<text x="1153.2" y="768" text-anchor="middle" font-size="16" fill="#64748b">70k</text>
<line x1="1394.0" y1="200" x2="1394.0" y2="734" stroke="#f1f5f9" stroke-width="1"/>
<text x="1394.0" y="768" text-anchor="middle" font-size="16" fill="#64748b">100k</text>
<line x1="190" y1="734" x2="1394" y2="734" stroke="#334155" stroke-width="2"/>
<line x1="190" y1="200" x2="190" y2="734" stroke="#334155" stroke-width="2"/>
<text x="792.0" y="802" text-anchor="middle" font-size="18" fill="#334155">Array Size</text>
<text x="102" y="467.0" text-anchor="middle" font-size="18" fill="#334155" transform="rotate(-90 102 467.0)">Average Runtime (ns)</text>
<line x1="190.0" y1="600.2450343773874" x2="430.8" y2="627.6793353705118" stroke="#c2410c" stroke-width="5" stroke-linecap="round"/>
<line x1="430.8" y1="627.6793353705118" x2="671.6" y2="257.21428571428567" stroke="#c2410c" stroke-width="5" stroke-linecap="round"/>
<line x1="671.6" y1="257.21428571428567" x2="912.4" y2="601.6728418640183" stroke="#c2410c" stroke-width="5" stroke-linecap="round"/>
<line x1="912.4" y1="601.6728418640183" x2="1153.2" y2="665.2102750190985" stroke="#c2410c" stroke-width="5" stroke-linecap="round"/>
<line x1="1153.2" y1="665.2102750190985" x2="1394.0" y2="472.8642093200917" stroke="#c2410c" stroke-width="5" stroke-linecap="round"/>
<line x1="190.0" y1="621.1522154316272" x2="430.8" y2="687.3412910618792" stroke="#0f766e" stroke-width="5" stroke-linecap="round"/>
<line x1="430.8" y1="687.3412910618792" x2="671.6" y2="683.2108479755539" stroke="#0f766e" stroke-width="5" stroke-linecap="round"/>
<line x1="671.6" y1="683.2108479755539" x2="912.4" y2="676.0208174178763" stroke="#0f766e" stroke-width="5" stroke-linecap="round"/>
<line x1="912.4" y1="676.0208174178763" x2="1153.2" y2="672.9102368220015" stroke="#0f766e" stroke-width="5" stroke-linecap="round"/>
<line x1="1153.2" y1="672.9102368220015" x2="1394.0" y2="669.6976699770818" stroke="#0f766e" stroke-width="5" stroke-linecap="round"/>
<circle cx="190.0" cy="600.2450343773874" r="7" fill="#c2410c" stroke="#ffffff" stroke-width="2.5"/>
<circle cx="430.8" cy="627.6793353705118" r="7" fill="#c2410c" stroke="#ffffff" stroke-width="2.5"/>
<circle cx="671.6" cy="257.21428571428567" r="7" fill="#c2410c" stroke="#ffffff" stroke-width="2.5"/>
<circle cx="912.4" cy="601.6728418640183" r="7" fill="#c2410c" stroke="#ffffff" stroke-width="2.5"/>
<circle cx="1153.2" cy="665.2102750190985" r="7" fill="#c2410c" stroke="#ffffff" stroke-width="2.5"/>
<circle cx="1394.0" cy="472.8642093200917" r="7" fill="#c2410c" stroke="#ffffff" stroke-width="2.5"/>
<circle cx="190.0" cy="621.1522154316272" r="7" fill="#0f766e" stroke="#ffffff" stroke-width="2.5"/>
<circle cx="430.8" cy="687.3412910618792" r="7" fill="#0f766e" stroke="#ffffff" stroke-width="2.5"/>
<circle cx="671.6" cy="683.2108479755539" r="7" fill="#0f766e" stroke="#ffffff" stroke-width="2.5"/>
<circle cx="912.4" cy="676.0208174178763" r="7" fill="#0f766e" stroke="#ffffff" stroke-width="2.5"/>
<circle cx="1153.2" cy="672.9102368220015" r="7" fill="#0f766e" stroke="#ffffff" stroke-width="2.5"/>
<circle cx="1394.0" cy="669.6976699770818" r="7" fill="#0f766e" stroke="#ffffff" stroke-width="2.5"/>
</svg>