<svg xmlns="http://www.w3.org/2000/svg" width="1500" height="760" viewBox="0 0 1500 760">
<rect width="100%" height="100%" fill="#fffdf8"/>
<text x="70" y="58" font-size="26" font-weight="700" fill="#111827">Where Recursion Stops Scaling</text><text x="70" y="86" font-size="15" fill="#4b5563">Poster figure for the recursion cliff. Each row tracks the recursive version only: solid line = completed safely, X = first stack overflow.</text>
<rect x="1156" y="48" width="168" height="28" rx="14" fill="#ffedd5" stroke="#fdba74" stroke-width="1"/><text x="1168" y="66" font-size="13" font-weight="700" fill="#9a3412">safe recursive range</text>
<rect x="1318" y="48" width="153" height="28" rx="14" fill="#ffffff" stroke="#fca5a5" stroke-width="1"/><text x="1330" y="66" font-size="13" font-weight="700" fill="#991b1b">X = first overflow</text>
<line x1="250" y1="660" x2="1410" y2="660" stroke="#334155" stroke-width="1.6"/>
<line x1="308.0" y1="132" x2="308.0" y2="660" stroke="#e5e7eb" stroke-width="1"/>
<text x="308.0" y="690" text-anchor="middle" font-size="13" fill="#64748b">5k</text>
<line x1="366.0" y1="132" x2="366.0" y2="660" stroke="#e5e7eb" stroke-width="1"/>
<text x="366.0" y="690" text-anchor="middle" font-size="13" fill="#64748b">10k</text>
<line x1="598.0" y1="132" x2="598.0" y2="660" stroke="#e5e7eb" stroke-width="1"/>
<text x="598.0" y="690" text-anchor="middle" font-size="13" fill="#64748b">30k</text>
<line x1="830.0" y1="132" x2="830.0" y2="660" stroke="#e5e7eb" stroke-width="1"/>
<text x="830.0" y="690" text-anchor="middle" font-size="13" fill="#64748b">50k</text>
<line x1="1062.0" y1="132" x2="1062.0" y2="660" stroke="#e5e7eb" stroke-width="1"/>
<text x="1062.0" y="690" text-anchor="middle" font-size="13" fill="#64748b">70k</text>
<line x1="1410.0" y1="132" x2="1410.0" y2="660" stroke="#e5e7eb" stroke-width="1"/>
<text x="1410.0" y="690" text-anchor="middle" font-size="13" fill="#64748b">100k</text>
<text x="228" y="210.0" text-anchor="end" font-size="19" font-weight="700" fill="#0f172a">Fibonacci Sequence</text>
<line x1="250" y1="207.0" x2="1410" y2="207.0" stroke="#e2e8f0" stroke-width="8" stroke-linecap="round"/>
<line x1="250" y1="207.0" x2="598.0" y2="207.0" stroke="#ea580c" stroke-width="14" stroke-linecap="round"/>
<line x1="820.0" y1="197.0" x2="840.0" y2="217.0" stroke="#b91c1c" stroke-width="3" stroke-linecap="round"/><line x1="820.0" y1="217.0" x2="840.0" y2="197.0" stroke="#b91c1c" stroke-width="3" stroke-linecap="round"/>
<text x="846.0" y="199.0" font-size="14" font-weight="700" fill="#9a3412">overflow at 50k</text>
<text x="846.0" y="223.0" font-size="13" fill="#64748b">largest safe input: 30k</text>
<text x="228" y="340.0" text-anchor="end" font-size="19" font-weight="700" fill="#0f172a">Factorial</text>
<line x1="250" y1="337.0" x2="1410" y2="337.0" stroke="#e2e8f0" stroke-width="8" stroke-linecap="round"/>
<line x1="250" y1="337.0" x2="598.0" y2="337.0" stroke="#ea580c" stroke-width="14" stroke-linecap="round"/>
<line x1="820.0" y1="327.0" x2="840.0" y2="347.0" stroke="#b91c1c" stroke-width="3" stroke-linecap="round"/><line x1="820.0" y1="347.0" x2="840.0" y2="327.0" stroke="#b91c1c" stroke-width="3" stroke-linecap="round"/>
<text x="846.0" y="329.0" font-size="14" font-weight="700" fill="#9a3412">overflow at 50k</text>
<text x="846.0" y="353.0" font-size="13" fill="#64748b">largest safe input: 30k</text>
<text x="228" y="470.0" text-anchor="end" font-size="19" font-weight="700" fill="#0f172a">Binary Search</text>
<line x1="250" y1="467.0" x2="1410" y2="467.0" stroke="#e2e8f0" stroke-width="8" stroke-linecap="round"/>
<line x1="250" y1="467.0" x2="1410.0" y2="467.0" stroke="#ea580c" stroke-width="14" stroke-linecap="round"/>
<circle cx="1410.0" cy="467.0" r="8" fill="#059669" stroke="#ffffff" stroke-width="2"/>
<text x="1426.0" y="472.0" font-size="14" font-weight="700" fill="#065f46">no overflow observed through 100k</text>
<text x="228" y="600.0" text-anchor="end" font-size="19" font-weight="700" fill="#0f172a">Fast Exponentiation</text>
<line x1="250" y1="597.0" x2="1410" y2="597.0" stroke="#e2e8f0" stroke-width="8" stroke-linecap="round"/>
<line x1="250" y1="597.0" x2="1410.0" y2="597.0" stroke="#ea580c" stroke-width="14" stroke-linecap="round"/>
<circle cx="1410.0" cy="597.0" r="8" fill="#059669" stroke="#ffffff" stroke-width="2"/>
<text x="1426.0" y="602.0" font-size="14" font-weight="700" fill="#065f46">no overflow observed through 100k</text>
<text x="830.0" y="724" text-anchor="middle" font-size="14" fill="#334155">Tested Input Size</text>
</svg>