<svg xmlns="http://www.w3.org/2000/svg" width="1200" height="680" viewBox="0 0 1200 680">
<rect width="100%" height="100%" fill="#ffffff"/>
<text x="60" y="44" font-size="26" font-weight="700" fill="#111827">Recursive Stability Across Tested Inputs</text><text x="60" y="72" font-size="15" fill="#4b5563">Each bar shows the largest tested input size completed by the recursive version before any stack overflow occurred.</text>
<line x1="180" y1="600" x2="1130" y2="600" stroke="#374151" stroke-width="1.5"/>
<line x1="180" y1="110" x2="180" y2="600" stroke="#374151" stroke-width="1.5"/>
<line x1="227.5" y1="110" x2="227.5" y2="600" stroke="#f3f4f6" stroke-width="1"/>
<text x="227.5" y="624" text-anchor="middle" font-size="12" fill="#6b7280">5k</text>
<line x1="275.0" y1="110" x2="275.0" y2="600" stroke="#f3f4f6" stroke-width="1"/>
<text x="275.0" y="624" text-anchor="middle" font-size="12" fill="#6b7280">10k</text>
<line x1="465.0" y1="110" x2="465.0" y2="600" stroke="#f3f4f6" stroke-width="1"/>
<text x="465.0" y="624" text-anchor="middle" font-size="12" fill="#6b7280">30k</text>
<line x1="655.0" y1="110" x2="655.0" y2="600" stroke="#f3f4f6" stroke-width="1"/>
<text x="655.0" y="624" text-anchor="middle" font-size="12" fill="#6b7280">50k</text>
<line x1="845.0" y1="110" x2="845.0" y2="600" stroke="#f3f4f6" stroke-width="1"/>
<text x="845.0" y="624" text-anchor="middle" font-size="12" fill="#6b7280">70k</text>
<line x1="1130.0" y1="110" x2="1130.0" y2="600" stroke="#f3f4f6" stroke-width="1"/>
<text x="1130.0" y="624" text-anchor="middle" font-size="12" fill="#6b7280">100k</text>
<text x="164" y="176.25" text-anchor="end" font-size="14" fill="#111827">Fibonacci Sequence</text>
<rect x="180" y="141.85" width="285.0" height="58.8" rx="12" fill="#ea580c" opacity="0.9"/>
<text x="479.0" y="176.25" font-size="13" fill="#374151">safe through 30k; overflow at 50k</text>
<text x="164" y="298.75" text-anchor="end" font-size="14" fill="#111827">Factorial</text>
<rect x="180" y="264.35" width="285.0" height="58.8" rx="12" fill="#ea580c" opacity="0.9"/>
<text x="479.0" y="298.75" font-size="13" fill="#374151">safe through 30k; overflow at 50k</text>
<text x="164" y="421.25" text-anchor="end" font-size="14" fill="#111827">Binary Search</text>
<rect x="180" y="386.85" width="950.0" height="58.8" rx="12" fill="#2563eb" opacity="0.9"/>
<text x="1144.0" y="421.25" font-size="13" fill="#374151">safe through 100k; no overflow observed</text>
<text x="164" y="543.75" text-anchor="end" font-size="14" fill="#111827">Fast Exponentiation</text>
<rect x="180" y="509.35" width="950.0" height="58.8" rx="12" fill="#2563eb" opacity="0.9"/>
<text x="1144.0" y="543.75" font-size="13" fill="#374151">safe through 100k; no overflow observed</text>
<text x="655.0" y="652" text-anchor="middle" font-size="13" fill="#374151">Largest Input Size Completed by Recursive Version</text>
</svg>