<svg xmlns="http://www.w3.org/2000/svg" width="1400" height="980" viewBox="0 0 1400 980">
<rect width="100%" height="100%" fill="#ffffff"/>
<text x="60" y="44" font-size="26" font-weight="700" fill="#111827">Recursive vs Iterative Runtime by Algorithm</text><text x="60" y="72" font-size="15" fill="#4b5563">Average runtime in nanoseconds across the tested input sizes. Overflow points are marked with X.</text>
<rect x="1140" y="22" width="180" height="58" rx="12" fill="#f9fafb" stroke="#e5e7eb"/>
<line x1="1158" y1="44" x2="1190" y2="44" stroke="#c2410c" stroke-width="3"/>
<circle cx="1174" cy="44" r="4" fill="#c2410c"/>
<text x="1202" y="49" font-size="14" fill="#111827">Recursive</text>
<line x1="1158" y1="68" x2="1190" y2="68" stroke="#0f766e" stroke-width="3"/>
<circle cx="1174" cy="68" r="4" fill="#0f766e"/>
<text x="1202" y="73" font-size="14" fill="#111827">Iterative</text>
<rect x="60.0" y="110.0" width="617.0" height="368.0" rx="18" fill="#fcfcfd" stroke="#e5e7eb"/>
<text x="80.0" y="136.0" font-size="18" font-weight="700" fill="#111827">Fibonacci Sequence</text>
<line x1="132.0" y1="430.6475136848041" x2="653.0" y2="430.6475136848041" stroke="#e5e7eb" stroke-width="1"/>
<text x="120.0" y="435.6475136848041" text-anchor="end" font-size="12" fill="#6b7280">100.0K</text>
<line x1="132.0" y1="336.22944932007454" x2="653.0" y2="336.22944932007454" stroke="#e5e7eb" stroke-width="1"/>
<text x="120.0" y="341.22944932007454" text-anchor="end" font-size="12" fill="#6b7280">1.0M</text>
<line x1="132.0" y1="241.81138495534492" x2="653.0" y2="241.81138495534492" stroke="#e5e7eb" stroke-width="1"/>
<text x="120.0" y="246.81138495534492" text-anchor="end" font-size="12" fill="#6b7280">10.0M</text>
<line x1="132.0" y1="147.39332059061536" x2="653.0" y2="147.39332059061536" stroke="#e5e7eb" stroke-width="1"/>
<text x="120.0" y="152.39332059061536" text-anchor="end" font-size="12" fill="#6b7280">100.0M</text>
<line x1="132.0" y1="52.975256225885744" x2="653.0" y2="52.975256225885744" stroke="#e5e7eb" stroke-width="1"/>
<text x="120.0" y="57.975256225885744" text-anchor="end" font-size="12" fill="#6b7280">1.0B</text>
<line x1="132.0" y1="146.0" x2="132.0" y2="420.0" stroke="#f3f4f6" stroke-width="1"/>
<text x="132.0" y="444.0" text-anchor="middle" font-size="12" fill="#6b7280">5k</text>
<line x1="236.2" y1="146.0" x2="236.2" y2="420.0" stroke="#f3f4f6" stroke-width="1"/>
<text x="236.2" y="444.0" text-anchor="middle" font-size="12" fill="#6b7280">10k</text>
<line x1="340.4" y1="146.0" x2="340.4" y2="420.0" stroke="#f3f4f6" stroke-width="1"/>
<text x="340.4" y="444.0" text-anchor="middle" font-size="12" fill="#6b7280">30k</text>
<line x1="444.6" y1="146.0" x2="444.6" y2="420.0" stroke="#f3f4f6" stroke-width="1"/>
<text x="444.6" y="444.0" text-anchor="middle" font-size="12" fill="#6b7280">50k</text>
<line x1="548.8" y1="146.0" x2="548.8" y2="420.0" stroke="#f3f4f6" stroke-width="1"/>
<text x="548.8" y="444.0" text-anchor="middle" font-size="12" fill="#6b7280">70k</text>
<line x1="653.0" y1="146.0" x2="653.0" y2="420.0" stroke="#f3f4f6" stroke-width="1"/>
<text x="653.0" y="444.0" text-anchor="middle" font-size="12" fill="#6b7280">100k</text>
<line x1="132.0" y1="420.0" x2="653.0" y2="420.0" stroke="#374151" stroke-width="1.5"/>
<line x1="132.0" y1="146.0" x2="132.0" y2="420.0" stroke="#374151" stroke-width="1.5"/>
<text x="392.5" y="466.0" text-anchor="middle" font-size="13" fill="#374151">Input Size</text>
<text x="78.0" y="283.0" text-anchor="middle" font-size="13" fill="#374151" transform="rotate(-90 78.0 283.0)">Average Runtime (ns, log scale)</text>
<line x1="132.0" y1="352.67488299237823" x2="236.2" y2="342.06979126206164" stroke="#c2410c" stroke-width="3" stroke-linecap="round"/>
<line x1="236.2" y1="342.06979126206164" x2="340.4" y2="256.67135620600925" stroke="#c2410c" stroke-width="3" stroke-linecap="round"/>
<circle cx="132.0" cy="352.67488299237823" r="4.5" fill="#c2410c" stroke="#ffffff" stroke-width="1.5"/>
<circle cx="236.2" cy="342.06979126206164" r="4.5" fill="#c2410c" stroke="#ffffff" stroke-width="1.5"/>
<circle cx="340.4" cy="256.67135620600925" r="4.5" fill="#c2410c" stroke="#ffffff" stroke-width="1.5"/>
<line x1="438.6" y1="154.0" x2="450.6" y2="166.0" stroke="#c2410c" stroke-width="2.5"/>
<line x1="438.6" y1="166.0" x2="450.6" y2="154.0" stroke="#c2410c" stroke-width="2.5"/>
<line x1="542.8" y1="154.0" x2="554.8" y2="166.0" stroke="#c2410c" stroke-width="2.5"/>
<line x1="542.8" y1="166.0" x2="554.8" y2="154.0" stroke="#c2410c" stroke-width="2.5"/>
<line x1="647.0" y1="154.0" x2="659.0" y2="166.0" stroke="#c2410c" stroke-width="2.5"/>
<line x1="647.0" y1="166.0" x2="659.0" y2="154.0" stroke="#c2410c" stroke-width="2.5"/>
<line x1="132.0" y1="401.10344827586204" x2="236.2" y2="357.92747853767935" stroke="#0f766e" stroke-width="3" stroke-linecap="round"/>
<line x1="236.2" y1="357.92747853767935" x2="340.4" y2="264.13754433716116" stroke="#0f766e" stroke-width="3" stroke-linecap="round"/>
<line x1="340.4" y1="264.13754433716116" x2="444.6" y2="225.09456660021687" stroke="#0f766e" stroke-width="3" stroke-linecap="round"/>
<line x1="444.6" y1="225.09456660021687" x2="548.8" y2="196.09408853745776" stroke="#0f766e" stroke-width="3" stroke-linecap="round"/>
<line x1="548.8" y1="196.09408853745776" x2="653.0" y2="164.89655172413788" stroke="#0f766e" stroke-width="3" stroke-linecap="round"/>
<circle cx="132.0" cy="401.10344827586204" r="4.5" fill="#0f766e" stroke="#ffffff" stroke-width="1.5"/>
<circle cx="236.2" cy="357.92747853767935" r="4.5" fill="#0f766e" stroke="#ffffff" stroke-width="1.5"/>
<circle cx="340.4" cy="264.13754433716116" r="4.5" fill="#0f766e" stroke="#ffffff" stroke-width="1.5"/>
<circle cx="444.6" cy="225.09456660021687" r="4.5" fill="#0f766e" stroke="#ffffff" stroke-width="1.5"/>
<circle cx="548.8" cy="196.09408853745776" r="4.5" fill="#0f766e" stroke="#ffffff" stroke-width="1.5"/>
<circle cx="653.0" cy="164.89655172413788" r="4.5" fill="#0f766e" stroke="#ffffff" stroke-width="1.5"/>
<rect x="723.0" y="110.0" width="617.0" height="368.0" rx="18" fill="#fcfcfd" stroke="#e5e7eb"/>
<text x="743.0" y="136.0" font-size="18" font-weight="700" fill="#111827">Factorial</text>
<line x1="795.0" y1="435.67321974914574" x2="1316.0" y2="435.67321974914574" stroke="#e5e7eb" stroke-width="1"/>
<text x="783.0" y="440.67321974914574" text-anchor="end" font-size="12" fill="#6b7280">1.0M</text>
<line x1="795.0" y1="348.5998821086048" x2="1316.0" y2="348.5998821086048" stroke="#e5e7eb" stroke-width="1"/>
<text x="783.0" y="353.5998821086048" text-anchor="end" font-size="12" fill="#6b7280">10.0M</text>
<line x1="795.0" y1="261.5265444680639" x2="1316.0" y2="261.5265444680639" stroke="#e5e7eb" stroke-width="1"/>
<text x="783.0" y="266.5265444680639" text-anchor="end" font-size="12" fill="#6b7280">100.0M</text>
<line x1="795.0" y1="174.45320682752293" x2="1316.0" y2="174.45320682752293" stroke="#e5e7eb" stroke-width="1"/>
<text x="783.0" y="179.45320682752293" text-anchor="end" font-size="12" fill="#6b7280">1.0B</text>
<line x1="795.0" y1="87.37986918698203" x2="1316.0" y2="87.37986918698203" stroke="#e5e7eb" stroke-width="1"/>
<text x="783.0" y="92.37986918698203" text-anchor="end" font-size="12" fill="#6b7280">10.0B</text>
<line x1="795.0" y1="146.0" x2="795.0" y2="420.0" stroke="#f3f4f6" stroke-width="1"/>
<text x="795.0" y="444.0" text-anchor="middle" font-size="12" fill="#6b7280">5k</text>
<line x1="899.2" y1="146.0" x2="899.2" y2="420.0" stroke="#f3f4f6" stroke-width="1"/>
<text x="899.2" y="444.0" text-anchor="middle" font-size="12" fill="#6b7280">10k</text>
<line x1="1003.4" y1="146.0" x2="1003.4" y2="420.0" stroke="#f3f4f6" stroke-width="1"/>
<text x="1003.4" y="444.0" text-anchor="middle" font-size="12" fill="#6b7280">30k</text>
<line x1="1107.6" y1="146.0" x2="1107.6" y2="420.0" stroke="#f3f4f6" stroke-width="1"/>
<text x="1107.6" y="444.0" text-anchor="middle" font-size="12" fill="#6b7280">50k</text>
<line x1="1211.8" y1="146.0" x2="1211.8" y2="420.0" stroke="#f3f4f6" stroke-width="1"/>
<text x="1211.8" y="444.0" text-anchor="middle" font-size="12" fill="#6b7280">70k</text>
<line x1="1316.0" y1="146.0" x2="1316.0" y2="420.0" stroke="#f3f4f6" stroke-width="1"/>
<text x="1316.0" y="444.0" text-anchor="middle" font-size="12" fill="#6b7280">100k</text>
<line x1="795.0" y1="420.0" x2="1316.0" y2="420.0" stroke="#374151" stroke-width="1.5"/>
<line x1="795.0" y1="146.0" x2="795.0" y2="420.0" stroke="#374151" stroke-width="1.5"/>
<text x="1055.5" y="466.0" text-anchor="middle" font-size="13" fill="#374151">Input Size</text>
<text x="741.0" y="283.0" text-anchor="middle" font-size="13" fill="#374151" transform="rotate(-90 741.0 283.0)">Average Runtime (ns, log scale)</text>
<line x1="795.0" y1="381.0212025477092" x2="899.2" y2="339.1543859060144" stroke="#c2410c" stroke-width="3" stroke-linecap="round"/>
<line x1="899.2" y1="339.1543859060144" x2="1003.4" y2="255.30012831964476" stroke="#c2410c" stroke-width="3" stroke-linecap="round"/>
<circle cx="795.0" cy="381.0212025477092" r="4.5" fill="#c2410c" stroke="#ffffff" stroke-width="1.5"/>
<circle cx="899.2" cy="339.1543859060144" r="4.5" fill="#c2410c" stroke="#ffffff" stroke-width="1.5"/>
<circle cx="1003.4" cy="255.30012831964476" r="4.5" fill="#c2410c" stroke="#ffffff" stroke-width="1.5"/>
<line x1="1101.6" y1="154.0" x2="1113.6" y2="166.0" stroke="#c2410c" stroke-width="2.5"/>
<line x1="1101.6" y1="166.0" x2="1113.6" y2="154.0" stroke="#c2410c" stroke-width="2.5"/>
<line x1="1205.8" y1="154.0" x2="1217.8" y2="166.0" stroke="#c2410c" stroke-width="2.5"/>
<line x1="1205.8" y1="166.0" x2="1217.8" y2="154.0" stroke="#c2410c" stroke-width="2.5"/>
<line x1="1310.0" y1="154.0" x2="1322.0" y2="166.0" stroke="#c2410c" stroke-width="2.5"/>
<line x1="1310.0" y1="166.0" x2="1322.0" y2="154.0" stroke="#c2410c" stroke-width="2.5"/>
<line x1="795.0" y1="401.10344827586204" x2="899.2" y2="344.7659107985504" stroke="#0f766e" stroke-width="3" stroke-linecap="round"/>
<line x1="899.2" y1="344.7659107985504" x2="1003.4" y2="258.31367505405785" stroke="#0f766e" stroke-width="3" stroke-linecap="round"/>
<line x1="1003.4" y1="258.31367505405785" x2="1107.6" y2="219.51698873198103" stroke="#0f766e" stroke-width="3" stroke-linecap="round"/>
<line x1="1107.6" y1="219.51698873198103" x2="1211.8" y2="193.0553820960943" stroke="#0f766e" stroke-width="3" stroke-linecap="round"/>
<line x1="1211.8" y1="193.0553820960943" x2="1316.0" y2="164.89655172413788" stroke="#0f766e" stroke-width="3" stroke-linecap="round"/>
<circle cx="795.0" cy="401.10344827586204" r="4.5" fill="#0f766e" stroke="#ffffff" stroke-width="1.5"/>
<circle cx="899.2" cy="344.7659107985504" r="4.5" fill="#0f766e" stroke="#ffffff" stroke-width="1.5"/>
<circle cx="1003.4" cy="258.31367505405785" r="4.5" fill="#0f766e" stroke="#ffffff" stroke-width="1.5"/>
<circle cx="1107.6" cy="219.51698873198103" r="4.5" fill="#0f766e" stroke="#ffffff" stroke-width="1.5"/>
<circle cx="1211.8" cy="193.0553820960943" r="4.5" fill="#0f766e" stroke="#ffffff" stroke-width="1.5"/>
<circle cx="1316.0" cy="164.89655172413788" r="4.5" fill="#0f766e" stroke="#ffffff" stroke-width="1.5"/>
<rect x="60.0" y="532.0" width="617.0" height="368.0" rx="18" fill="#fcfcfd" stroke="#e5e7eb"/>
<text x="80.0" y="558.0" font-size="18" font-weight="700" fill="#111827">Binary Search</text>
<line x1="132.0" y1="983.5894741248105" x2="653.0" y2="983.5894741248105" stroke="#e5e7eb" stroke-width="1"/>
<text x="120.0" y="988.5894741248105" text-anchor="end" font-size="12" fill="#6b7280">100</text>
<line x1="132.0" y1="593.7004004872996" x2="653.0" y2="593.7004004872996" stroke="#e5e7eb" stroke-width="1"/>
<text x="120.0" y="598.7004004872996" text-anchor="end" font-size="12" fill="#6b7280">1.0K</text>
<line x1="132.0" y1="203.81132684978866" x2="653.0" y2="203.81132684978866" stroke="#e5e7eb" stroke-width="1"/>
<text x="120.0" y="208.81132684978866" text-anchor="end" font-size="12" fill="#6b7280">10.0K</text>
<line x1="132.0" y1="568.0" x2="132.0" y2="842.0" stroke="#f3f4f6" stroke-width="1"/>
<text x="132.0" y="866.0" text-anchor="middle" font-size="12" fill="#6b7280">5k</text>
<line x1="236.2" y1="568.0" x2="236.2" y2="842.0" stroke="#f3f4f6" stroke-width="1"/>
<text x="236.2" y="866.0" text-anchor="middle" font-size="12" fill="#6b7280">10k</text>
<line x1="340.4" y1="568.0" x2="340.4" y2="842.0" stroke="#f3f4f6" stroke-width="1"/>
<text x="340.4" y="866.0" text-anchor="middle" font-size="12" fill="#6b7280">30k</text>
<line x1="444.6" y1="568.0" x2="444.6" y2="842.0" stroke="#f3f4f6" stroke-width="1"/>
<text x="444.6" y="866.0" text-anchor="middle" font-size="12" fill="#6b7280">50k</text>
<line x1="548.8" y1="568.0" x2="548.8" y2="842.0" stroke="#f3f4f6" stroke-width="1"/>
<text x="548.8" y="866.0" text-anchor="middle" font-size="12" fill="#6b7280">70k</text>
<line x1="653.0" y1="568.0" x2="653.0" y2="842.0" stroke="#f3f4f6" stroke-width="1"/>
<text x="653.0" y="866.0" text-anchor="middle" font-size="12" fill="#6b7280">100k</text>
<line x1="132.0" y1="842.0" x2="653.0" y2="842.0" stroke="#374151" stroke-width="1.5"/>
<line x1="132.0" y1="568.0" x2="132.0" y2="842.0" stroke="#374151" stroke-width="1.5"/>
<text x="392.5" y="888.0" text-anchor="middle" font-size="13" fill="#374151">Input Size</text>
<text x="78.0" y="705.0" text-anchor="middle" font-size="13" fill="#374151" transform="rotate(-90 78.0 705.0)">Average Runtime (ns, log scale)</text>
<line x1="132.0" y1="692.484957954953" x2="236.2" y2="737.0012863596197" stroke="#c2410c" stroke-width="3" stroke-linecap="round"/>
<line x1="236.2" y1="737.0012863596197" x2="340.4" y2="700.2464758102665" stroke="#c2410c" stroke-width="3" stroke-linecap="round"/>
<line x1="340.4" y1="700.2464758102665" x2="444.6" y2="586.8965517241379" stroke="#c2410c" stroke-width="3" stroke-linecap="round"/>
<line x1="444.6" y1="586.8965517241379" x2="548.8" y2="692.484957954953" stroke="#c2410c" stroke-width="3" stroke-linecap="round"/>
<line x1="548.8" y1="692.484957954953" x2="653.0" y2="690.0745731497184" stroke="#c2410c" stroke-width="3" stroke-linecap="round"/>
<circle cx="132.0" cy="692.484957954953" r="4.5" fill="#c2410c" stroke="#ffffff" stroke-width="1.5"/>
<circle cx="236.2" cy="737.0012863596197" r="4.5" fill="#c2410c" stroke="#ffffff" stroke-width="1.5"/>
<circle cx="340.4" cy="700.2464758102665" r="4.5" fill="#c2410c" stroke="#ffffff" stroke-width="1.5"/>
<circle cx="444.6" cy="586.8965517241379" r="4.5" fill="#c2410c" stroke="#ffffff" stroke-width="1.5"/>
<circle cx="548.8" cy="692.484957954953" r="4.5" fill="#c2410c" stroke="#ffffff" stroke-width="1.5"/>
<circle cx="653.0" cy="690.0745731497184" r="4.5" fill="#c2410c" stroke="#ffffff" stroke-width="1.5"/>
<line x1="132.0" y1="777.8723408506327" x2="236.2" y2="823.1034482758621" stroke="#0f766e" stroke-width="3" stroke-linecap="round"/>
<line x1="236.2" y1="823.1034482758621" x2="340.4" y2="807.4428792962519" stroke="#0f766e" stroke-width="3" stroke-linecap="round"/>
<line x1="340.4" y1="807.4428792962519" x2="444.6" y2="812.9153127024705" stroke="#0f766e" stroke-width="3" stroke-linecap="round"/>
<line x1="444.6" y1="812.9153127024705" x2="548.8" y2="815.4054557160732" stroke="#0f766e" stroke-width="3" stroke-linecap="round"/>
<line x1="548.8" y1="815.4054557160732" x2="653.0" y2="805.0663255718077" stroke="#0f766e" stroke-width="3" stroke-linecap="round"/>
<circle cx="132.0" cy="777.8723408506327" r="4.5" fill="#0f766e" stroke="#ffffff" stroke-width="1.5"/>
<circle cx="236.2" cy="823.1034482758621" r="4.5" fill="#0f766e" stroke="#ffffff" stroke-width="1.5"/>
<circle cx="340.4" cy="807.4428792962519" r="4.5" fill="#0f766e" stroke="#ffffff" stroke-width="1.5"/>
<circle cx="444.6" cy="812.9153127024705" r="4.5" fill="#0f766e" stroke="#ffffff" stroke-width="1.5"/>
<circle cx="548.8" cy="815.4054557160732" r="4.5" fill="#0f766e" stroke="#ffffff" stroke-width="1.5"/>
<circle cx="653.0" cy="805.0663255718077" r="4.5" fill="#0f766e" stroke="#ffffff" stroke-width="1.5"/>
<rect x="723.0" y="532.0" width="617.0" height="368.0" rx="18" fill="#fcfcfd" stroke="#e5e7eb"/>
<text x="743.0" y="558.0" font-size="18" font-weight="700" fill="#111827">Fast Exponentiation</text>
<line x1="795.0" y1="855.0360704392908" x2="1316.0" y2="855.0360704392908" stroke="#e5e7eb" stroke-width="1"/>
<text x="783.0" y="860.0360704392908" text-anchor="end" font-size="12" fill="#6b7280">10.0K</text>
<line x1="795.0" y1="709.0203349362057" x2="1316.0" y2="709.0203349362057" stroke="#e5e7eb" stroke-width="1"/>
<text x="783.0" y="714.0203349362057" text-anchor="end" font-size="12" fill="#6b7280">100.0K</text>
<line x1="795.0" y1="563.0045994331206" x2="1316.0" y2="563.0045994331206" stroke="#e5e7eb" stroke-width="1"/>
<text x="783.0" y="568.0045994331206" text-anchor="end" font-size="12" fill="#6b7280">1.0M</text>
<line x1="795.0" y1="568.0" x2="795.0" y2="842.0" stroke="#f3f4f6" stroke-width="1"/>
<text x="795.0" y="866.0" text-anchor="middle" font-size="12" fill="#6b7280">5k</text>
<line x1="899.2" y1="568.0" x2="899.2" y2="842.0" stroke="#f3f4f6" stroke-width="1"/>
<text x="899.2" y="866.0" text-anchor="middle" font-size="12" fill="#6b7280">10k</text>
<line x1="1003.4" y1="568.0" x2="1003.4" y2="842.0" stroke="#f3f4f6" stroke-width="1"/>
<text x="1003.4" y="866.0" text-anchor="middle" font-size="12" fill="#6b7280">30k</text>
<line x1="1107.6" y1="568.0" x2="1107.6" y2="842.0" stroke="#f3f4f6" stroke-width="1"/>
<text x="1107.6" y="866.0" text-anchor="middle" font-size="12" fill="#6b7280">50k</text>
<line x1="1211.8" y1="568.0" x2="1211.8" y2="842.0" stroke="#f3f4f6" stroke-width="1"/>
<text x="1211.8" y="866.0" text-anchor="middle" font-size="12" fill="#6b7280">70k</text>
<line x1="1316.0" y1="568.0" x2="1316.0" y2="842.0" stroke="#f3f4f6" stroke-width="1"/>
<text x="1316.0" y="866.0" text-anchor="middle" font-size="12" fill="#6b7280">100k</text>
<line x1="795.0" y1="842.0" x2="1316.0" y2="842.0" stroke="#374151" stroke-width="1.5"/>
<line x1="795.0" y1="568.0" x2="795.0" y2="842.0" stroke="#374151" stroke-width="1.5"/>
<text x="1055.5" y="888.0" text-anchor="middle" font-size="13" fill="#374151">Input Size</text>
<text x="741.0" y="705.0" text-anchor="middle" font-size="13" fill="#374151" transform="rotate(-90 741.0 705.0)">Average Runtime (ns, log scale)</text>
<line x1="795.0" y1="756.8385210626616" x2="899.2" y2="710.1754107412117" stroke="#c2410c" stroke-width="3" stroke-linecap="round"/>
<line x1="899.2" y1="710.1754107412117" x2="1003.4" y2="687.7608451323244" stroke="#c2410c" stroke-width="3" stroke-linecap="round"/>
<line x1="1003.4" y1="687.7608451323244" x2="1107.6" y2="663.2345094212432" stroke="#c2410c" stroke-width="3" stroke-linecap="round"/>
<line x1="1107.6" y1="663.2345094212432" x2="1211.8" y2="656.8422157042835" stroke="#c2410c" stroke-width="3" stroke-linecap="round"/>
<line x1="1211.8" y1="656.8422157042835" x2="1316.0" y2="647.5027789108517" stroke="#c2410c" stroke-width="3" stroke-linecap="round"/>
<circle cx="795.0" cy="756.8385210626616" r="4.5" fill="#c2410c" stroke="#ffffff" stroke-width="1.5"/>
<circle cx="899.2" cy="710.1754107412117" r="4.5" fill="#c2410c" stroke="#ffffff" stroke-width="1.5"/>
<circle cx="1003.4" cy="687.7608451323244" r="4.5" fill="#c2410c" stroke="#ffffff" stroke-width="1.5"/>
<circle cx="1107.6" cy="663.2345094212432" r="4.5" fill="#c2410c" stroke="#ffffff" stroke-width="1.5"/>
<circle cx="1211.8" cy="656.8422157042835" r="4.5" fill="#c2410c" stroke="#ffffff" stroke-width="1.5"/>
<circle cx="1316.0" cy="647.5027789108517" r="4.5" fill="#c2410c" stroke="#ffffff" stroke-width="1.5"/>
<line x1="795.0" y1="823.1034482758621" x2="899.2" y2="748.9284115465833" stroke="#0f766e" stroke-width="3" stroke-linecap="round"/>
<line x1="899.2" y1="748.9284115465833" x2="1003.4" y2="685.7267231121891" stroke="#0f766e" stroke-width="3" stroke-linecap="round"/>
<line x1="1003.4" y1="685.7267231121891" x2="1107.6" y2="635.7055479081587" stroke="#0f766e" stroke-width="3" stroke-linecap="round"/>
<line x1="1107.6" y1="635.7055479081587" x2="1211.8" y2="586.8965517241379" stroke="#0f766e" stroke-width="3" stroke-linecap="round"/>
<line x1="1211.8" y1="586.8965517241379" x2="1316.0" y2="627.6499498201231" stroke="#0f766e" stroke-width="3" stroke-linecap="round"/>
<circle cx="795.0" cy="823.1034482758621" r="4.5" fill="#0f766e" stroke="#ffffff" stroke-width="1.5"/>
<circle cx="899.2" cy="748.9284115465833" r="4.5" fill="#0f766e" stroke="#ffffff" stroke-width="1.5"/>
<circle cx="1003.4" cy="685.7267231121891" r="4.5" fill="#0f766e" stroke="#ffffff" stroke-width="1.5"/>
<circle cx="1107.6" cy="635.7055479081587" r="4.5" fill="#0f766e" stroke="#ffffff" stroke-width="1.5"/>
<circle cx="1211.8" cy="586.8965517241379" r="4.5" fill="#0f766e" stroke="#ffffff" stroke-width="1.5"/>
<circle cx="1316.0" cy="627.6499498201231" r="4.5" fill="#0f766e" stroke="#ffffff" stroke-width="1.5"/>
</svg>